<svg width="170" height="48" viewBox="0 0 170 48" fill="none" xmlns="http://www.w3.org/2000/svg">
<path fill-rule="evenodd" clip-rule="evenodd" d="M23.8164 43.0376C25.7494 43.0376 27.3164 41.4781 27.3164 39.5543C27.3164 37.6306 25.7494 36.071 23.8164 36.071C21.8834 36.071 20.3164 37.6306 20.3164 39.5543C20.3164 41.4781 21.8834 43.0376 23.8164 43.0376ZM23.8165 41.4891C24.8903 41.4891 25.7609 40.6227 25.7609 39.554C25.7609 38.4852 24.8903 37.6188 23.8165 37.6188C22.7426 37.6188 21.872 38.4852 21.872 39.554C21.872 40.6227 22.7426 41.4891 23.8165 41.4891Z" fill="#FFB71A"/>
<path fill-rule="evenodd" clip-rule="evenodd" d="M35.8164 43.0376C37.7494 43.0376 39.3164 41.4781 39.3164 39.5543C39.3164 37.6306 37.7494 36.071 35.8164 36.071C33.8834 36.071 32.3164 37.6306 32.3164 39.5543C32.3164 41.4781 33.8834 43.0376 35.8164 43.0376ZM35.8165 41.4891C36.8903 41.4891 37.7609 40.6227 37.7609 39.554C37.7609 38.4852 36.8903 37.6188 35.8165 37.6188C34.7426 37.6188 33.872 38.4852 33.872 39.554C33.872 40.6227 34.7426 41.4891 35.8165 41.4891Z" fill="#FFB71A"/>
<path d="M1.31608 12.6864L6.98537 12.6855C7.79188 12.6854 8.52052 13.1665 8.83451 13.9065L17.2987 33.8546C17.6126 34.5944 18.3411 35.0755 19.1474 35.0755L44.8164 35.0759" stroke="#FFB71A" stroke-width="2.5" stroke-linecap="round"/>
<path d="M19.6248 25.3774C19.3076 24.1146 20.2625 22.8901 21.5645 22.8901H30.0048C30.5544 22.8901 31 23.3357 31 23.8854C31 24.435 30.5544 24.8806 30.0048 24.8806H25.9952C25.4456 24.8806 25 25.3262 25 25.8758C25 26.4255 25.4456 26.871 25.9952 26.871H37.0048C37.5544 26.871 38 27.3166 38 27.8663C38 28.4159 37.5544 28.8615 37.0048 28.8615H31.9952C31.4456 28.8615 31 29.3071 31 29.8567C31 30.4064 31.4456 30.8519 31.9952 30.8519H43.0048C43.5544 30.8519 44 31.2975 44 31.8472C44 32.3968 43.5544 32.8424 43.0048 32.8424H23.0597C22.1428 32.8424 21.3434 32.2189 21.12 31.3297L19.6248 25.3774Z" fill="#064BEF"/>
<path d="M43.3752 22.3934C43.6924 23.6562 42.7375 24.8806 41.4355 24.8806H32.9952C32.4456 24.8806 32 24.435 32 23.8854C32 23.3357 32.4456 22.8902 32.9952 22.8902H37.0048C37.5544 22.8902 38 22.4446 38 21.8949C38 21.3453 37.5544 20.8997 37.0048 20.8997H25.9952C25.4456 20.8997 25 20.4541 25 19.9045C25 19.3548 25.4456 18.9093 25.9952 18.9093H31.0048C31.5544 18.9093 32 18.4637 32 17.914C32 17.3644 31.5544 16.9188 31.0048 16.9188H19.9952C19.4456 16.9188 19 16.4732 19 15.9236C19 15.3739 19.4456 14.9284 19.9952 14.9284L39.9403 14.9284C40.8572 14.9284 41.6566 15.5518 41.88 16.4411L43.3752 22.3934Z" fill="#EFAE1A"/>
<path d="M65.625 24.3426V24.7176H66.7V24.9676H65.575V25.2176H66.05V25.7176H66.125V26.2176H66.6V26.4676H65.925V26.6426C65.925 26.726 65.9167 26.7926 65.9 26.8426H65.775C65.7083 27.026 65.6083 27.151 65.475 27.2176H65.7C65.6167 27.2843 65.5 27.3176 65.35 27.3176H62.5V27.5926H62.4V28.0926H62.225V28.3426H62.55V28.5926H62.5V28.8426H62.05V29.3426H63.7V29.8426H65.575V30.3426H63.6V30.5926H66.15V30.9676H62.75V31.0926H61.975V31.5926H63.2V31.8426H63.675V31.9676H63.925V32.4676H62.9V32.8426H64V33.3426H64.05V33.8426H63V34.2176H62.9V34.3426H62.5V34.8426H61.625V35.3426H62.25C62.2167 35.576 62.1167 35.7426 61.95 35.8426H62.175C62.0917 35.9093 61.975 35.9426 61.825 35.9426H57.45C57.3 35.9426 57.1833 35.9093 57.1 35.8426H56.85C56.6833 35.7426 56.5833 35.576 56.55 35.3426H55.9V34.8426H56.775V34.3426H57.175V34.2176H57.275V33.8426H58.325V33.3426H58.275V32.8426H57.175V32.4676H58.2V31.9676H57.95V31.8426H57.475V31.5926H56.25V31.0926H57.025V30.9676H60.425V30.5926H57.875V30.3426H59.85V29.8426H57.975V29.3426H56.325V28.8426H56.775V28.5926H56.825V28.3426H56.5V28.0926H56.675V27.5926H56.775V27.3176H55.05C54.9 27.3176 54.7833 27.2843 54.7 27.2176H54.475C54.3417 27.151 54.2417 27.026 54.175 26.8426H54.325C54.3083 26.8093 54.2917 26.776 54.275 26.7426C54.275 26.7093 54.275 26.676 54.275 26.6426V26.4676H54.95V26.2176H54.475V25.7176H54.4V25.2176H53.925V24.9676H55.05V24.7176H53.975V24.3426H54.4V24.0926H54.375V23.7176H54.575V23.6176C54.575 23.501 54.6 23.4093 54.65 23.3426H55.875C55.9917 23.076 56.1917 22.9426 56.475 22.9426H58.2V22.8426H58.6V22.3426H55.875V22.0926H57.1C57.1167 22.0593 57.125 22.0176 57.125 21.9676H56.9C56.9 21.901 56.9 21.8426 56.9 21.7926C56.9167 21.726 56.9333 21.6593 56.95 21.5926H56.75C56.7667 21.5093 56.7833 21.426 56.8 21.3426C56.8167 21.2426 56.8333 21.1593 56.85 21.0926H56.8C56.8 21.0593 56.8 21.0343 56.8 21.0176C56.8167 21.001 56.825 20.9843 56.825 20.9676H57C57 20.9343 57 20.9093 57 20.8926C57.0167 20.876 57.025 20.8593 57.025 20.8426H56.975C56.9917 20.776 57.0083 20.7176 57.025 20.6676C57.0417 20.601 57.0583 20.5343 57.075 20.4676H57.1C57.1333 20.3843 57.1667 20.301 57.2 20.2176C57.2333 20.1176 57.275 20.0343 57.325 19.9676H57.425C57.4583 19.8843 57.5 19.801 57.55 19.7176H57.05C57.15 19.551 57.2667 19.3843 57.4 19.2176H57.075L57.45 18.8426H57.95C58.0333 18.776 58.1083 18.7176 58.175 18.6676C58.2583 18.601 58.3417 18.5343 58.425 18.4676H58.275C58.5083 18.301 58.7417 18.176 58.975 18.0926H58.95C59 18.0593 59.05 18.0343 59.1 18.0176C59.15 18.001 59.2 17.9843 59.25 17.9676H58.85C59.3833 17.7676 59.9583 17.6343 60.575 17.5676C61.1917 17.4843 61.8333 17.4426 62.5 17.4426H64.825C65.1917 17.4426 65.4167 17.6176 65.5 17.9676H65.875C65.8917 18.001 65.9 18.0426 65.9 18.0926H65.925V18.4676H66.075V18.8426H65.575V19.2176H65.9V19.7176H66.4V19.9676H66.3V20.4676H66.275V20.8426H66.325V20.9676H66.175V21.0926H66.2V21.1426C66.2 21.326 66.1417 21.476 66.025 21.5926H66.225C66.1083 21.7426 65.9333 21.8176 65.7 21.8176H63.675C63.3583 21.8176 63.125 21.8676 62.975 21.9676H63.175C63.1417 21.9843 63.0917 22.026 63.025 22.0926H61.8C61.7167 22.176 61.6667 22.2593 61.65 22.3426H64.375C64.3583 22.3926 64.3417 22.4426 64.325 22.4926C64.325 22.5426 64.325 22.5926 64.325 22.6426V22.8426H63.925V22.9426H66.775C67.075 22.9426 67.2833 23.076 67.4 23.3426H66.175C66.2083 23.4426 66.225 23.5343 66.225 23.6176V23.7176H66.025V24.0926H66.05V24.3426H65.625ZM80.3344 34.5926V34.8426H82.5094V35.2676C82.5094 35.301 82.501 35.326 82.4844 35.3426H81.3094C81.276 35.576 81.1677 35.7426 80.9844 35.8426H80.7594C80.676 35.9093 80.5594 35.9426 80.4094 35.9426H76.0344C75.8844 35.9426 75.7677 35.9093 75.6844 35.8426H75.8844C75.7177 35.726 75.6177 35.5593 75.5844 35.3426H76.7844V34.8426H75.7844C75.701 34.926 75.6094 35.0093 75.5094 35.0926C75.426 35.176 75.3344 35.2593 75.2344 35.3426H74.9594C74.6594 35.5593 74.3594 35.726 74.0594 35.8426H73.2594C73.1427 35.8926 73.0094 35.9343 72.8594 35.9676C72.726 36.0176 72.5844 36.0593 72.4344 36.0926H72.2344C72.0677 36.126 71.8927 36.151 71.7094 36.1676C71.5427 36.1843 71.3677 36.1926 71.1844 36.1926C70.9844 36.1926 70.7844 36.1843 70.5844 36.1676C70.401 36.151 70.2177 36.126 70.0344 36.0926H70.2344C70.0677 36.0593 69.901 36.0176 69.7344 35.9676C69.5844 35.9343 69.4344 35.8926 69.2844 35.8426H70.0594C69.6927 35.7093 69.3594 35.5426 69.0594 35.3426H69.3344C69.2177 35.2593 69.1094 35.176 69.0094 35.0926C68.9094 35.0093 68.8094 34.926 68.7094 34.8426H67.4594L67.2344 34.5926C67.2177 34.5593 67.1927 34.5176 67.1594 34.4676C67.126 34.4176 67.0927 34.376 67.0594 34.3426H67.8094C67.776 34.276 67.7344 34.2176 67.6844 34.1676C67.651 34.101 67.6177 34.0343 67.5844 33.9676H67.3594C67.3594 33.951 67.3427 33.9093 67.3094 33.8426H67.0844L67.0094 33.7176H67.0344L66.8844 33.3426H66.7594C66.7427 33.276 66.726 33.2176 66.7094 33.1676C66.6927 33.101 66.676 33.0343 66.6594 32.9676H65.7094C65.6594 32.7843 65.6344 32.6176 65.6344 32.4676H66.4594V32.2176C66.4594 32.1343 66.4594 32.051 66.4594 31.9676C66.4594 31.8676 66.4677 31.7843 66.4844 31.7176H67.2344C67.251 31.6343 67.2677 31.551 67.2844 31.4676C67.301 31.3676 67.3177 31.2843 67.3344 31.2176H66.6344L66.6844 31.0926H66.7094L66.7594 30.9676H66.7344C66.7677 30.901 66.801 30.8426 66.8344 30.7926C66.8677 30.726 66.8927 30.6593 66.9094 30.5926H65.4344L65.5844 30.3426H65.0344C65.0844 30.2926 65.1177 30.251 65.1344 30.2176H66.0344C66.0677 30.1843 66.101 30.1426 66.1344 30.0926C66.1677 30.0426 66.201 30.001 66.2344 29.9676H66.2844C66.451 29.7676 66.626 29.601 66.8094 29.4676H64.7594C64.876 29.3843 65.001 29.301 65.1344 29.2176C65.251 29.1176 65.376 29.0343 65.5094 28.9676H66.8844L67.1094 28.8426H67.8094C67.8427 28.8093 67.8844 28.7843 67.9344 28.7676C67.9844 28.751 68.026 28.7343 68.0594 28.7176H68.3594C68.6594 28.5676 68.9844 28.4426 69.3344 28.3426H70.8594C71.0927 28.2593 71.326 28.1926 71.5594 28.1426C71.8094 28.076 72.0677 28.0176 72.3344 27.9676H71.7094L72.1094 27.8926L74.7594 27.4676V27.3426H76.0344V27.2176H73.6344V27.0926H75.0594C75.0594 27.0093 75.0594 26.9426 75.0594 26.8926C75.0594 26.826 75.051 26.7676 75.0344 26.7176C75.0177 26.5676 74.9594 26.4426 74.8594 26.3426H74.4344C74.4177 26.326 74.376 26.301 74.3094 26.2676L74.1344 26.3426H73.7094C73.6427 26.3926 73.576 26.451 73.5094 26.5176C73.4427 26.5676 73.3677 26.6343 73.2844 26.7176H73.3094C73.126 26.901 72.8927 26.9926 72.6094 26.9926H68.3594C68.1094 26.9926 67.9427 26.901 67.8594 26.7176H67.8344C67.7844 26.6343 67.7677 26.5426 67.7844 26.4426V26.3426H68.1844C68.201 26.3093 68.2094 26.2676 68.2094 26.2176H66.6094C66.6094 26.151 66.626 26.0676 66.6594 25.9676H70.2594C70.2594 25.951 70.276 25.9093 70.3094 25.8426H68.0844C68.1344 25.676 68.2094 25.5093 68.3094 25.3426H68.7344C68.7844 25.2593 68.8427 25.176 68.9094 25.0926C68.976 25.0093 69.0427 24.926 69.1094 24.8426H67.2344L67.4594 24.5926H71.0844C71.151 24.526 71.2177 24.4676 71.2844 24.4176C71.3677 24.351 71.4427 24.2843 71.5094 24.2176H69.2094L69.3594 24.0926H68.6594C68.7427 24.026 68.8344 23.9676 68.9344 23.9176C69.0344 23.851 69.1344 23.7843 69.2344 23.7176H70.4094C70.7594 23.5176 71.126 23.351 71.5094 23.2176H71.6844C72.1344 23.051 72.6344 22.926 73.1844 22.8426C73.751 22.7426 74.3677 22.6926 75.0344 22.6926C76.401 22.6926 77.5594 22.8676 78.5094 23.2176H78.3094C78.4927 23.2843 78.6677 23.3593 78.8344 23.4426C79.0177 23.526 79.1927 23.6176 79.3594 23.7176H78.1844L78.7094 24.0926H79.4094L79.5594 24.2176H81.8594L82.2344 24.5926H78.6094C78.6427 24.626 78.676 24.6676 78.7094 24.7176C78.7427 24.7676 78.776 24.8093 78.8094 24.8426H80.6594C80.726 24.9093 80.7844 24.9926 80.8344 25.0926C80.901 25.176 80.951 25.2593 80.9844 25.3426H80.5844L80.8094 25.8426H83.0344C83.0677 25.9093 83.0844 25.951 83.0844 25.9676H79.4844C79.5177 26.001 79.5344 26.0426 79.5344 26.0926C79.551 26.1426 79.5677 26.1843 79.5844 26.2176H80.4094C80.4094 26.2343 80.4094 26.251 80.4094 26.2676C80.426 26.2843 80.4344 26.3093 80.4344 26.3426H80.8594L81.0094 27.0926H79.5594C79.5594 27.1093 79.5594 27.126 79.5594 27.1426C79.576 27.1593 79.5844 27.1843 79.5844 27.2176H81.9844V27.3426H80.7344V27.4676C80.751 27.551 80.7594 27.6343 80.7594 27.7176C80.7594 27.801 80.7594 27.8843 80.7594 27.9676H81.4094V28.3426H79.8594V28.7176H79.5844V28.8426H78.9094V28.9676H77.5344V29.4676H79.5844V29.9676H79.5344V30.2176H78.6344V30.3426H79.1844V30.5926H80.8344V30.9676H80.5344V31.2176H80.7344V31.7176H80.5844V32.4676H79.7594V32.9676H80.7094V33.3426H80.8344V33.8426H81.0594V33.9676H81.2594V34.3426H80.4844V34.5926H80.3344ZM73.0844 26.1926C72.9677 26.1926 72.8844 26.201 72.8344 26.2176H73.3594C73.3094 26.201 73.2177 26.1926 73.0844 26.1926ZM73.2594 30.5426L73.0344 30.5926H73.2594V30.5426ZM72.4094 31.2176H73.1094C72.926 31.351 72.8344 31.5176 72.8344 31.7176H72.0844V31.7926C72.0844 31.9593 72.1427 32.101 72.2594 32.2176C72.3427 32.3343 72.5094 32.4176 72.7594 32.4676H73.3594C73.6094 32.4176 73.826 32.3343 74.0094 32.2176C74.1594 32.0843 74.301 31.9176 74.4344 31.7176H74.5594C74.5927 31.6343 74.626 31.5593 74.6594 31.4926C74.6927 31.4093 74.7177 31.3176 74.7344 31.2176H74.5344C74.5344 31.1843 74.5344 31.1593 74.5344 31.1426C74.551 31.126 74.5594 31.1093 74.5594 31.0926H74.5844V30.9676H74.8844C74.901 30.901 74.9094 30.8426 74.9094 30.7926C74.9094 30.726 74.9094 30.6593 74.9094 30.5926H74.4844L73.2594 30.8676C73.1927 30.8843 73.126 30.901 73.0594 30.9176C73.0094 30.9343 72.9594 30.951 72.9094 30.9676C72.8594 30.9843 72.8094 31.001 72.7594 31.0176C72.7094 31.0343 72.6677 31.0593 72.6344 31.0926H72.6094C72.576 31.1093 72.5427 31.126 72.5094 31.1426C72.476 31.1593 72.4427 31.1843 72.4094 31.2176ZM72.5344 32.4676H71.9094C71.976 32.4843 72.076 32.4926 72.2094 32.4926C72.2594 32.4926 72.3094 32.4926 72.3594 32.4926C72.426 32.4926 72.4844 32.4843 72.5344 32.4676ZM97.1611 33.7176H96.1361C96.0361 33.8843 95.9195 34.051 95.7861 34.2176H96.2361C96.2195 34.251 96.1861 34.2926 96.1361 34.3426H95.0361C94.9695 34.4093 94.9028 34.476 94.8361 34.5426C94.7861 34.5926 94.7195 34.651 94.6361 34.7176H94.6111C94.5278 34.7843 94.4361 34.851 94.3361 34.9176C94.2528 34.9676 94.1611 35.026 94.0611 35.0926H93.6111C93.4611 35.1926 93.2945 35.2843 93.1111 35.3676C92.9278 35.4343 92.7445 35.5093 92.5611 35.5926H92.4611C92.4111 35.6093 92.3528 35.626 92.2861 35.6426C92.2361 35.6593 92.1695 35.6843 92.0861 35.7176H94.9361C94.8695 35.7343 94.7945 35.751 94.7111 35.7676C94.6445 35.7843 94.5695 35.8093 94.4861 35.8426H93.2361C93.0195 35.8926 92.7945 35.9343 92.5611 35.9676C92.3278 36.0176 92.0861 36.0593 91.8361 36.0926H91.0861C90.8195 36.126 90.5361 36.151 90.2361 36.1676C89.9361 36.1843 89.6195 36.1926 89.2861 36.1926C88.9695 36.1926 88.6695 36.1843 88.3861 36.1676C88.1195 36.151 87.8611 36.126 87.6111 36.0926H88.3361C88.1028 36.0593 87.8778 36.0176 87.6611 35.9676C87.4445 35.9343 87.2361 35.8926 87.0361 35.8426H88.2861L87.8611 35.7176H85.0111C84.9611 35.6843 84.9028 35.6593 84.8361 35.6426C84.7861 35.626 84.7278 35.6093 84.6611 35.5926H84.7361C84.5528 35.5093 84.3695 35.426 84.1861 35.3426C84.0195 35.2593 83.8528 35.176 83.6861 35.0926H84.1361C84.0361 35.026 83.9361 34.9676 83.8361 34.9176C83.7528 34.851 83.6695 34.7843 83.5861 34.7176H83.6361C83.5528 34.651 83.4778 34.5926 83.4111 34.5426C83.3445 34.476 83.2778 34.4093 83.2111 34.3426H84.2861C84.2695 34.3093 84.2528 34.2843 84.2361 34.2676C84.2195 34.251 84.2028 34.2343 84.1861 34.2176H83.7111C83.6445 34.1343 83.5778 34.051 83.5111 33.9676C83.4445 33.8843 83.3778 33.801 83.3111 33.7176H84.3611C84.2945 33.6343 84.2445 33.551 84.2111 33.4676C84.1778 33.3676 84.1445 33.2843 84.1111 33.2176H83.6361C83.6028 33.151 83.5861 33.1093 83.5861 33.0926H82.8111L82.7361 32.8426H82.1611C82.1445 32.7926 82.1361 32.7176 82.1361 32.6176C82.1361 32.4843 82.1445 32.3926 82.1611 32.3426H82.3361C82.4195 32.1426 82.5528 32.0176 82.7361 31.9676H82.6861C82.7195 31.951 82.7778 31.9426 82.8611 31.9426H87.3111C87.3278 31.9426 87.3445 31.951 87.3611 31.9676C87.3945 31.9676 87.4195 31.9676 87.4361 31.9676H87.4861C87.6195 32.001 87.7361 32.051 87.8361 32.1176C87.9528 32.1843 88.0695 32.2593 88.1861 32.3426H88.0361C88.1695 32.426 88.3111 32.5093 88.4611 32.5926C88.6111 32.6593 88.7861 32.6926 88.9861 32.6926C89.1195 32.6926 89.2445 32.6676 89.3611 32.6176C89.4778 32.551 89.5445 32.4593 89.5611 32.3426H89.6361V32.3176C89.6361 32.1676 89.6028 32.051 89.5361 31.9676C89.4695 31.8676 89.3611 31.7843 89.2111 31.7176H88.9111C88.7445 31.6343 88.5195 31.551 88.2361 31.4676C87.9695 31.3843 87.5945 31.301 87.1111 31.2176H87.3361L86.9361 31.1426C86.8028 31.1093 86.6695 31.0843 86.5361 31.0676C86.4028 31.0343 86.2695 31.001 86.1361 30.9676H86.2361L85.8111 30.8426H85.8611C85.6445 30.776 85.4361 30.701 85.2361 30.6176C85.0361 30.5343 84.8445 30.4426 84.6611 30.3426H84.7611L84.1611 29.9676H84.1111C83.9945 29.8843 83.8861 29.801 83.7861 29.7176C83.7028 29.6343 83.6195 29.551 83.5361 29.4676H83.0111C82.9945 29.4343 82.9778 29.4093 82.9611 29.3926C82.9445 29.376 82.9278 29.3593 82.9111 29.3426H83.1361C83.0861 29.2926 83.0528 29.251 83.0361 29.2176H82.3361L82.0611 28.8426H83.1361L82.9861 28.5926H82.6361C82.5528 28.4093 82.4861 28.2426 82.4361 28.0926H82.5861C82.5861 28.0593 82.5778 28.0343 82.5611 28.0176C82.5611 28.001 82.5611 27.9843 82.5611 27.9676H83.7361C83.7361 27.901 83.7195 27.8176 83.6861 27.7176H81.4861C81.4861 27.651 81.4861 27.5926 81.4861 27.5426C81.4695 27.476 81.4528 27.4093 81.4361 27.3426H81.4611L81.4361 27.0926H83.1111C83.0945 27.0593 83.0861 27.0176 83.0861 26.9676C83.0861 26.901 83.0861 26.8426 83.0861 26.7926C83.1028 26.726 83.1111 26.6593 83.1111 26.5926H81.9361L81.9611 26.3426H83.0861L83.1611 26.0926H82.6611C82.6778 26.0593 82.6945 26.0176 82.7111 25.9676C82.7278 25.9176 82.7445 25.876 82.7611 25.8426H82.5611C82.5945 25.776 82.6278 25.7176 82.6611 25.6676C82.6945 25.601 82.7195 25.5343 82.7361 25.4676H82.8361L82.9861 25.2176H82.9611C82.9945 25.151 83.0361 25.0926 83.0861 25.0426C83.1361 24.976 83.1861 24.9093 83.2361 24.8426C83.2861 24.776 83.3361 24.7176 83.3861 24.6676C83.4361 24.601 83.4945 24.5343 83.5611 24.4676H83.5111L83.6361 24.3426H83.6111C83.6278 24.3093 83.6445 24.2843 83.6611 24.2676C83.6945 24.251 83.7195 24.2343 83.7361 24.2176H83.7861L84.0861 23.9676C84.1195 23.9343 84.1445 23.9093 84.1611 23.8926C84.1945 23.876 84.2278 23.8593 84.2611 23.8426H83.7861C84.0695 23.6593 84.3778 23.4926 84.7111 23.3426H85.4861C85.5361 23.3093 85.5861 23.2843 85.6361 23.2676C85.6861 23.251 85.7445 23.2343 85.8111 23.2176H84.1111C84.1778 23.1843 84.2361 23.1593 84.2861 23.1426C84.3528 23.126 84.4195 23.1093 84.4861 23.0926H85.5611C85.9778 22.9593 86.4195 22.8593 86.8861 22.7926C87.3695 22.726 87.8778 22.6926 88.4111 22.6926C88.9611 22.6926 89.4778 22.726 89.9611 22.7926C90.4445 22.8593 90.8945 22.9593 91.3111 23.0926H90.2361C90.3028 23.1093 90.3611 23.126 90.4111 23.1426C90.4778 23.1593 90.5445 23.1843 90.6111 23.2176H92.2861L92.6361 23.3426H91.8611C92.0445 23.4093 92.2195 23.4926 92.3861 23.5926C92.5528 23.676 92.7111 23.7593 92.8611 23.8426H93.3361L93.5361 23.9676H93.5611C93.6278 24.001 93.6861 24.0426 93.7361 24.0926C93.8028 24.1426 93.8611 24.1843 93.9111 24.2176H93.8861L94.0361 24.3426H94.0611L94.2111 24.4676H94.2611C94.4111 24.5843 94.5361 24.7093 94.6361 24.8426C94.7695 24.9593 94.8695 25.0843 94.9361 25.2176H94.9611L95.1111 25.4676H94.9861C95.0195 25.5343 95.0528 25.601 95.0861 25.6676C95.1195 25.7176 95.1445 25.776 95.1611 25.8426H95.3361L95.4111 26.0926H95.8861L95.9111 26.2676V26.3426H96.3361C96.3361 26.4093 96.3195 26.4926 96.2861 26.5926C96.1695 26.826 96.0028 26.9426 95.7861 26.9426H91.5861C91.4195 26.9426 91.2611 26.9093 91.1111 26.8426C90.9778 26.7593 90.8445 26.676 90.7111 26.5926C90.5945 26.5093 90.4611 26.426 90.3111 26.3426H89.8861C89.7195 26.2426 89.5361 26.1926 89.3361 26.1926C89.1695 26.1926 89.0361 26.2426 88.9361 26.3426H87.8361C87.7528 26.426 87.7111 26.5093 87.7111 26.5926H88.8861C88.8861 26.676 88.9028 26.7593 88.9361 26.8426C88.9695 26.926 89.0445 27.0093 89.1611 27.0926H87.5111C87.5945 27.126 87.6861 27.1676 87.7861 27.2176C87.8861 27.2676 88.0111 27.3093 88.1611 27.3426H88.1361C88.3361 27.4093 88.5861 27.4676 88.8861 27.5176C89.2028 27.5676 89.5695 27.626 89.9861 27.6926C90.0195 27.6926 90.0445 27.701 90.0611 27.7176C90.0945 27.7176 90.1195 27.7176 90.1361 27.7176H92.3361C92.5361 27.751 92.7278 27.7926 92.9111 27.8426C93.1111 27.876 93.2945 27.9176 93.4611 27.9676H92.2861C92.3528 27.9843 92.4111 28.001 92.4611 28.0176C92.5278 28.0343 92.5945 28.0593 92.6611 28.0926H92.5111C92.7278 28.1593 92.9195 28.2343 93.0861 28.3176C93.2695 28.401 93.4445 28.4926 93.6111 28.5926H93.9861L94.3861 28.8426H93.3111C93.3945 28.9093 93.4778 28.976 93.5611 29.0426C93.6445 29.0926 93.7195 29.151 93.7861 29.2176H94.4861L94.6111 29.3426H94.3861L94.5111 29.4676H95.0111C95.1945 29.651 95.3278 29.8176 95.4111 29.9676H95.4611C95.5111 30.0343 95.5528 30.101 95.5861 30.1676C95.6195 30.2176 95.6528 30.276 95.6861 30.3426H95.5861C95.6195 30.426 95.6528 30.5093 95.6861 30.5926C95.7361 30.676 95.7695 30.7593 95.7861 30.8426H95.7111L95.7611 30.9676H95.6611C95.6778 31.001 95.6861 31.0426 95.6861 31.0926C95.6861 31.1426 95.6945 31.1843 95.7111 31.2176H95.4861C95.5361 31.3843 95.5611 31.551 95.5611 31.7176H95.8861V31.8926C95.8861 31.9593 95.8778 32.0343 95.8611 32.1176C95.8611 32.1843 95.8611 32.2593 95.8611 32.3426H95.7861C95.7695 32.426 95.7528 32.5093 95.7361 32.5926C95.7361 32.676 95.7195 32.7593 95.6861 32.8426H96.2611C96.2611 32.926 96.2361 33.0093 96.1861 33.0926H96.9861C96.9528 33.1593 96.9361 33.201 96.9361 33.2176H97.4111C97.3778 33.301 97.3361 33.3843 97.2861 33.4676C97.2528 33.551 97.2111 33.6343 97.1611 33.7176ZM109.31 33.0926H108.71V33.3426H109.61V33.5926H110.435V33.9676H109.86V34.3426H111.535V34.7176H108.81V35.2176H109.01V35.2676C109.01 35.301 109.001 35.326 108.985 35.3426C108.951 35.5093 108.893 35.6343 108.81 35.7176H108.61C108.543 35.7843 108.493 35.826 108.46 35.8426H109.31C109.226 35.9093 109.11 35.9426 108.96 35.9426H106.135C105.851 35.9426 105.568 35.9343 105.285 35.9176C105.018 35.901 104.76 35.876 104.51 35.8426H103.66C103.543 35.826 103.426 35.8093 103.31 35.7926C103.193 35.7593 103.068 35.7343 102.935 35.7176H103.135C102.918 35.6676 102.71 35.6093 102.51 35.5426C102.326 35.476 102.143 35.4093 101.96 35.3426H101.985C101.935 35.3093 101.885 35.2843 101.835 35.2676C101.785 35.251 101.743 35.2343 101.71 35.2176H101.51C101.376 35.1343 101.243 35.0593 101.11 34.9926C100.976 34.9093 100.843 34.8176 100.71 34.7176H103.46C103.393 34.651 103.318 34.5926 103.235 34.5426C103.168 34.476 103.101 34.4093 103.035 34.3426H101.36L101.035 33.9676H101.635C101.585 33.901 101.535 33.8426 101.485 33.7926C101.451 33.726 101.418 33.6593 101.385 33.5926H100.56L100.41 33.3426H99.5096C99.4929 33.3093 99.4762 33.2676 99.4596 33.2176C99.4429 33.1676 99.4179 33.126 99.3846 33.0926H100.01L99.8596 32.7176H100.36L100.285 32.4676C100.251 32.3676 100.235 32.2843 100.235 32.2176H102.21C102.193 32.151 102.176 32.0926 102.16 32.0426C102.16 31.976 102.16 31.9093 102.16 31.8426H99.3096C99.3096 31.8093 99.3012 31.7843 99.2846 31.7676C99.2846 31.751 99.2846 31.7343 99.2846 31.7176H99.2096C99.2096 31.651 99.2012 31.5926 99.1846 31.5426C99.1846 31.476 99.1846 31.4093 99.1846 31.3426H99.1096C99.1096 31.276 99.1012 31.2176 99.0846 31.1676C99.0846 31.101 99.0846 31.0343 99.0846 30.9676H99.4346V30.8426H99.2096V30.5926H99.0096V30.0926H99.3096V29.5926H99.0096V29.2176H99.2346V28.9676H99.2596V28.5926H99.3846V27.7176H99.4346V27.3426H99.5596V27.3176H97.5846C97.3346 27.3176 97.1346 27.201 96.9846 26.9676H97.3596C97.3096 26.8676 97.2846 26.7593 97.2846 26.6426V26.4676H96.4846V26.0926H96.6596V25.5926H96.5346V25.3426H96.5846V25.0926H96.9596V24.9676H96.3346V24.5926H97.0846V24.2176H96.9346V23.9676H96.7596V23.5926H96.6096V23.4676H96.5346C96.5846 23.2176 96.7429 23.051 97.0096 22.9676H97.1596C97.2096 22.951 97.2762 22.9426 97.3596 22.9426H99.3346V22.8426H99.4346V22.4676H99.2346V22.2176H99.2096V21.8426H99.1096V21.7176H98.5096V21.4676H97.9346V21.3426H98.1346V21.2176H98.7096V20.7176H98.9346V20.4676H98.1346V20.2176H99.3596V19.8426H99.2346V19.7176H98.9596V19.4676H99.2096V19.3426H98.9596V18.9676H99.1846V18.8676C99.1846 18.7843 99.2012 18.6926 99.2346 18.5926H99.5596C99.6762 18.326 99.8846 18.1926 100.185 18.1926H104.56C104.826 18.1926 105.035 18.326 105.185 18.5926H104.86C104.893 18.6926 104.91 18.7843 104.91 18.8676V18.9676H104.685V19.3426H104.935V19.4676H104.685V19.7176H104.96V19.8426H105.085V20.2176H103.86V20.4676H104.66V20.7176H104.435V21.2176H103.86V21.3426H103.66V21.4676H104.235V21.7176H104.835V21.8426H104.935V22.2176H104.96V22.4676H105.16V22.8426H105.06V22.9426H108.21C108.293 22.9426 108.351 22.951 108.385 22.9676H108.235C108.468 23.051 108.626 23.2176 108.71 23.4676H108.785C108.785 23.4843 108.785 23.501 108.785 23.5176C108.801 23.5343 108.81 23.5593 108.81 23.5926H108.96V23.9676H109.135V24.2176H109.285V24.5926H108.535V24.9676H109.16V25.0926H108.785V25.3426H108.735V25.5926H108.86V26.0926H108.685V26.4676H109.485V26.6426C109.485 26.7093 109.476 26.7676 109.46 26.8176C109.443 26.8676 109.418 26.9176 109.385 26.9676H109.035C108.885 27.201 108.685 27.3176 108.435 27.3176H105.285V27.3426H105.16V27.7176H105.11V28.5926H104.985V28.9676H104.96V29.2176H104.735V29.5926H105.035V30.0926H104.735C104.735 30.176 104.735 30.2593 104.735 30.3426C104.751 30.426 104.768 30.5093 104.785 30.5926H105.01C105.043 30.6926 105.076 30.776 105.11 30.8426H105.31L105.385 30.9676H105.035C105.218 31.201 105.501 31.3176 105.885 31.3176H108.16C108.243 31.3176 108.301 31.326 108.335 31.3426H108.41C108.61 31.3926 108.751 31.5176 108.835 31.7176H108.91C108.91 31.7343 108.91 31.751 108.91 31.7676C108.926 31.7843 108.935 31.8093 108.935 31.8426H111.785C111.785 31.8593 111.785 31.8843 111.785 31.9176C111.801 31.9343 111.81 31.9593 111.81 31.9926V32.2176H109.81V32.7176H109.31V33.0926ZM124.69 27.8426H126.39C126.39 27.8593 126.382 27.876 126.365 27.8926C126.349 27.9093 126.332 27.9343 126.315 27.9676H125.74C125.607 28.1343 125.424 28.2176 125.19 28.2176H120.315C120.082 28.2176 119.899 28.1343 119.765 27.9676H120.34L120.265 27.8426H118.54L118.465 27.7176C118.449 27.651 118.407 27.5676 118.34 27.4676H117.915C117.815 27.2843 117.707 27.1593 117.59 27.0926H118.215C118.082 27.0093 117.924 26.9676 117.74 26.9676C117.54 26.9676 117.374 27.0093 117.24 27.0926H116.715C116.582 27.1593 116.474 27.2843 116.39 27.4676H116.165C116.132 27.5343 116.099 27.6176 116.065 27.7176H117.415C117.399 27.751 117.39 27.7926 117.39 27.8426H118.065C118.049 27.876 118.04 27.9176 118.04 27.9676H118.865C118.849 28.001 118.84 28.0426 118.84 28.0926C118.84 28.1426 118.832 28.1843 118.815 28.2176H118.915V28.3426H117.94V28.5926H114.815V28.7176H119.615C119.599 28.801 119.59 28.8843 119.59 28.9676C119.59 29.051 119.59 29.1343 119.59 29.2176H115.165V29.3426H116.94V29.4676H116.465V29.9676H115.115C115.115 30.0343 115.115 30.101 115.115 30.1676C115.115 30.2176 115.124 30.276 115.14 30.3426V30.5926H116.64C116.64 30.7093 116.649 30.7926 116.665 30.8426H115.29C115.324 31.0593 115.357 31.226 115.39 31.3426H115.115C115.215 31.576 115.357 31.7426 115.54 31.8426H116.365C116.499 31.8926 116.64 31.9176 116.79 31.9176C116.974 31.9176 117.124 31.8926 117.24 31.8426H117.59C117.74 31.7593 117.882 31.5926 118.015 31.3426H117.34L117.415 31.1676C117.449 31.101 117.482 31.0426 117.515 30.9926C117.565 30.926 117.607 30.876 117.64 30.8426H119.39C119.54 30.726 119.707 30.6676 119.89 30.6676H124.765C124.932 30.6676 125.09 30.726 125.24 30.8426H123.49C123.657 30.976 123.724 31.1426 123.69 31.3426H124.365C124.349 31.4093 124.332 31.4843 124.315 31.5676C124.315 31.651 124.299 31.7426 124.265 31.8426H123.89L123.815 32.0926H125.415L125.365 32.2176H124.84L124.79 32.3426H122.015L121.94 32.4676H124.965L124.69 32.9676H124.94L124.865 33.0926H122.99C122.94 33.176 122.882 33.2593 122.815 33.3426C122.765 33.426 122.707 33.5093 122.64 33.5926H122.19C122.174 33.6093 122.157 33.626 122.14 33.6426C122.124 33.6593 122.107 33.6843 122.09 33.7176H123.815C123.799 33.7343 123.782 33.751 123.765 33.7676C123.749 33.7843 123.732 33.8093 123.715 33.8426H122.465C122.449 33.8593 122.432 33.876 122.415 33.8926C122.399 33.9093 122.374 33.9343 122.34 33.9676H123.39L123.14 34.2176H123.015L122.89 34.3426H123.19L122.89 34.5926H123.34C123.257 34.6593 123.165 34.726 123.065 34.7926C122.982 34.8426 122.89 34.901 122.79 34.9676H123.29L123.09 35.0926H122.54L122.09 35.3426H122.24C121.974 35.4926 121.674 35.6176 121.34 35.7176H120.915C120.765 35.7676 120.615 35.8176 120.465 35.8676C120.315 35.901 120.165 35.9343 120.015 35.9676H119.79C119.674 35.9843 119.557 36.001 119.44 36.0176C119.324 36.051 119.207 36.076 119.09 36.0926H119.59C119.357 36.126 119.115 36.151 118.865 36.1676C118.615 36.1843 118.357 36.1926 118.09 36.1926C117.84 36.1926 117.599 36.1843 117.365 36.1676C117.132 36.151 116.899 36.126 116.665 36.0926H116.14C116.024 36.076 115.907 36.051 115.79 36.0176C115.69 36.001 115.582 35.9843 115.465 35.9676H115.69C115.54 35.9343 115.39 35.901 115.24 35.8676C115.09 35.8176 114.949 35.7676 114.815 35.7176H115.24C114.924 35.6176 114.632 35.4926 114.365 35.3426H114.19C114.124 35.3093 114.049 35.276 113.965 35.2426C113.899 35.1926 113.832 35.1426 113.765 35.0926H114.29L114.09 34.9676H113.59L113.09 34.5926H112.665C112.615 34.5593 112.565 34.5176 112.515 34.4676C112.465 34.4176 112.424 34.376 112.39 34.3426H112.065L111.94 34.2176H112.065L111.815 33.9676H110.79C110.74 33.9176 110.707 33.876 110.69 33.8426H111.94C111.89 33.7926 111.857 33.751 111.84 33.7176H110.09C110.074 33.6843 110.04 33.6426 109.99 33.5926H110.44C110.374 33.5093 110.315 33.426 110.265 33.3426C110.215 33.2593 110.165 33.176 110.115 33.0926H111.99L111.915 32.9676H111.665C111.615 32.8843 111.565 32.801 111.515 32.7176C111.482 32.6343 111.449 32.551 111.415 32.4676H108.415L108.365 32.3426H111.14L111.09 32.2176H111.615L111.565 32.0926H109.965L109.89 31.8426H109.065C109.049 31.7593 109.032 31.676 109.015 31.5926C108.999 31.5093 108.982 31.426 108.965 31.3426H109.215L109.14 30.8426H110.515V30.5926H109.015V30.4676C108.999 30.3843 108.99 30.301 108.99 30.2176C108.99 30.1343 108.99 30.051 108.99 29.9676H110.34V29.4676H110.815V29.3426H109.04V29.2176H113.465V28.7176H108.69V28.5926H111.815V28.3426H112.79V28.2176H112.69C112.707 28.1843 112.715 28.1426 112.715 28.0926C112.715 28.0426 112.715 28.001 112.715 27.9676H111.915V27.8426H111.24C111.24 27.7926 111.249 27.751 111.265 27.7176H109.915C109.949 27.6176 109.965 27.5343 109.965 27.4676H110.215L110.29 27.0926H110.815L110.965 26.5926H111.015C111.032 26.526 111.057 26.4676 111.09 26.4176C111.124 26.351 111.149 26.2843 111.165 26.2176H111.04C111.074 26.1343 111.107 26.051 111.14 25.9676C111.19 25.8676 111.24 25.7843 111.29 25.7176H111.14C111.174 25.651 111.207 25.5926 111.24 25.5426C111.29 25.476 111.34 25.4093 111.39 25.3426H111.415C111.482 25.2593 111.549 25.176 111.615 25.0926C111.682 24.9926 111.749 24.9093 111.815 24.8426H111.84C111.94 24.7093 112.065 24.5843 112.215 24.4676H112.09L112.24 24.3426H112.19L112.34 24.2176H113.265C113.299 24.1843 113.332 24.1593 113.365 24.1426C113.399 24.126 113.424 24.1093 113.44 24.0926H112.89C112.924 24.0593 112.957 24.0343 112.99 24.0176C113.024 24.001 113.049 23.9843 113.065 23.9676H112.865C113.165 23.7676 113.457 23.601 113.74 23.4676H114.24C114.34 23.4176 114.44 23.376 114.54 23.3426C114.64 23.2926 114.74 23.251 114.84 23.2176H114.265C114.332 23.1843 114.39 23.1593 114.44 23.1426C114.507 23.126 114.574 23.1093 114.64 23.0926H114.615C114.699 23.0593 114.774 23.0343 114.84 23.0176C114.924 23.001 114.999 22.9843 115.065 22.9676H114.99C115.724 22.7843 116.49 22.6926 117.29 22.6926C117.74 22.6926 118.165 22.7176 118.565 22.7676C118.965 22.8176 119.34 22.8843 119.69 22.9676H119.765C119.849 22.9843 119.924 23.001 119.99 23.0176C120.074 23.0343 120.149 23.0593 120.215 23.0926H120.24C120.307 23.1093 120.365 23.126 120.415 23.1426C120.482 23.1593 120.549 23.1843 120.615 23.2176H121.19C121.44 23.301 121.649 23.3843 121.815 23.4676H121.29C121.457 23.5343 121.615 23.6176 121.765 23.7176C121.915 23.801 122.065 23.8843 122.215 23.9676H122.415C122.449 23.9843 122.482 24.001 122.515 24.0176C122.549 24.0343 122.574 24.0593 122.59 24.0926H123.14C123.174 24.1093 123.199 24.126 123.215 24.1426C123.249 24.1593 123.282 24.1843 123.315 24.2176H122.39L122.54 24.3426H122.59L122.74 24.4676H122.84C122.924 24.5343 122.999 24.601 123.065 24.6676C123.132 24.7176 123.199 24.776 123.265 24.8426H123.24C123.324 24.926 123.399 25.0093 123.465 25.0926C123.549 25.176 123.624 25.2593 123.69 25.3426H123.665C123.715 25.4093 123.765 25.476 123.815 25.5426C123.865 25.5926 123.907 25.651 123.94 25.7176H124.09C124.157 25.801 124.215 25.8843 124.265 25.9676C124.315 26.051 124.357 26.1343 124.39 26.2176H124.54C124.574 26.2843 124.607 26.351 124.64 26.4176C124.674 26.4676 124.699 26.526 124.715 26.5926H124.69C124.724 26.676 124.757 26.7593 124.79 26.8426C124.824 26.926 124.849 27.0093 124.865 27.0926H124.24L124.315 27.4676H124.74V27.7176L124.69 27.8426ZM139.392 34.5926V34.8426H141.567V35.2676C141.567 35.301 141.559 35.326 141.542 35.3426H140.367C140.334 35.576 140.225 35.7426 140.042 35.8426H139.817C139.734 35.9093 139.617 35.9426 139.467 35.9426H135.092C134.942 35.9426 134.825 35.9093 134.742 35.8426H134.942C134.775 35.726 134.675 35.5593 134.642 35.3426H135.842V34.8426H134.842C134.759 34.926 134.667 35.0093 134.567 35.0926C134.484 35.176 134.392 35.2593 134.292 35.3426H134.017C133.717 35.5593 133.417 35.726 133.117 35.8426H132.317C132.2 35.8926 132.067 35.9343 131.917 35.9676C131.784 36.0176 131.642 36.0593 131.492 36.0926H131.292C131.125 36.126 130.95 36.151 130.767 36.1676C130.6 36.1843 130.425 36.1926 130.242 36.1926C130.042 36.1926 129.842 36.1843 129.642 36.1676C129.459 36.151 129.275 36.126 129.092 36.0926H129.292C129.125 36.0593 128.959 36.0176 128.792 35.9676C128.642 35.9343 128.492 35.8926 128.342 35.8426H129.117C128.75 35.7093 128.417 35.5426 128.117 35.3426H128.392C128.275 35.2593 128.167 35.176 128.067 35.0926C127.967 35.0093 127.867 34.926 127.767 34.8426H126.517L126.292 34.5926C126.275 34.5593 126.25 34.5176 126.217 34.4676C126.184 34.4176 126.15 34.376 126.117 34.3426H126.867C126.834 34.276 126.792 34.2176 126.742 34.1676C126.709 34.101 126.675 34.0343 126.642 33.9676H126.417C126.417 33.951 126.4 33.9093 126.367 33.8426H126.142L126.067 33.7176H126.092L125.942 33.3426H125.817C125.8 33.276 125.784 33.2176 125.767 33.1676C125.75 33.101 125.734 33.0343 125.717 32.9676H124.767C124.717 32.7843 124.692 32.6176 124.692 32.4676H125.517V32.2176C125.517 32.1343 125.517 32.051 125.517 31.9676C125.517 31.8676 125.525 31.7843 125.542 31.7176H126.292C126.309 31.6343 126.325 31.551 126.342 31.4676C126.359 31.3676 126.375 31.2843 126.392 31.2176H125.692L125.742 31.0926H125.767L125.817 30.9676H125.792C125.825 30.901 125.859 30.8426 125.892 30.7926C125.925 30.726 125.95 30.6593 125.967 30.5926H124.492L124.642 30.3426H124.092C124.142 30.2926 124.175 30.251 124.192 30.2176H125.092C125.125 30.1843 125.159 30.1426 125.192 30.0926C125.225 30.0426 125.259 30.001 125.292 29.9676H125.342C125.509 29.7676 125.684 29.601 125.867 29.4676H123.817C123.934 29.3843 124.059 29.301 124.192 29.2176C124.309 29.1176 124.434 29.0343 124.567 28.9676H125.942L126.167 28.8426H126.867C126.9 28.8093 126.942 28.7843 126.992 28.7676C127.042 28.751 127.084 28.7343 127.117 28.7176H127.417C127.717 28.5676 128.042 28.4426 128.392 28.3426H129.917C130.15 28.2593 130.384 28.1926 130.617 28.1426C130.867 28.076 131.125 28.0176 131.392 27.9676H130.767L131.167 27.8926L133.817 27.4676V27.3426H135.092V27.2176H132.692V27.0926H134.117C134.117 27.0093 134.117 26.9426 134.117 26.8926C134.117 26.826 134.109 26.7676 134.092 26.7176C134.075 26.5676 134.017 26.4426 133.917 26.3426H133.492C133.475 26.326 133.434 26.301 133.367 26.2676L133.192 26.3426H132.767C132.7 26.3926 132.634 26.451 132.567 26.5176C132.5 26.5676 132.425 26.6343 132.342 26.7176H132.367C132.184 26.901 131.95 26.9926 131.667 26.9926H127.417C127.167 26.9926 127 26.901 126.917 26.7176H126.892C126.842 26.6343 126.825 26.5426 126.842 26.4426V26.3426H127.242C127.259 26.3093 127.267 26.2676 127.267 26.2176H125.667C125.667 26.151 125.684 26.0676 125.717 25.9676H129.317C129.317 25.951 129.334 25.9093 129.367 25.8426H127.142C127.192 25.676 127.267 25.5093 127.367 25.3426H127.792C127.842 25.2593 127.9 25.176 127.967 25.0926C128.034 25.0093 128.1 24.926 128.167 24.8426H126.292L126.517 24.5926H130.142C130.209 24.526 130.275 24.4676 130.342 24.4176C130.425 24.351 130.5 24.2843 130.567 24.2176H128.267L128.417 24.0926H127.717C127.8 24.026 127.892 23.9676 127.992 23.9176C128.092 23.851 128.192 23.7843 128.292 23.7176H129.467C129.817 23.5176 130.184 23.351 130.567 23.2176H130.742C131.192 23.051 131.692 22.926 132.242 22.8426C132.809 22.7426 133.425 22.6926 134.092 22.6926C135.459 22.6926 136.617 22.8676 137.567 23.2176H137.367C137.55 23.2843 137.725 23.3593 137.892 23.4426C138.075 23.526 138.25 23.6176 138.417 23.7176H137.242L137.767 24.0926H138.467L138.617 24.2176H140.917L141.292 24.5926H137.667C137.7 24.626 137.734 24.6676 137.767 24.7176C137.8 24.7676 137.834 24.8093 137.867 24.8426H139.717C139.784 24.9093 139.842 24.9926 139.892 25.0926C139.959 25.176 140.009 25.2593 140.042 25.3426H139.642L139.867 25.8426H142.092C142.125 25.9093 142.142 25.951 142.142 25.9676H138.542C138.575 26.001 138.592 26.0426 138.592 26.0926C138.609 26.1426 138.625 26.1843 138.642 26.2176H139.467C139.467 26.2343 139.467 26.251 139.467 26.2676C139.484 26.2843 139.492 26.3093 139.492 26.3426H139.917L140.067 27.0926H138.617C138.617 27.1093 138.617 27.126 138.617 27.1426C138.634 27.1593 138.642 27.1843 138.642 27.2176H141.042V27.3426H139.792V27.4676C139.809 27.551 139.817 27.6343 139.817 27.7176C139.817 27.801 139.817 27.8843 139.817 27.9676H140.467V28.3426H138.917V28.7176H138.642V28.8426H137.967V28.9676H136.592V29.4676H138.642V29.9676H138.592V30.2176H137.692V30.3426H138.242V30.5926H139.892V30.9676H139.592V31.2176H139.792V31.7176H139.642V32.4676H138.817V32.9676H139.767V33.3426H139.892V33.8426H140.117V33.9676H140.317V34.3426H139.542V34.5926H139.392ZM132.142 26.1926C132.025 26.1926 131.942 26.201 131.892 26.2176H132.417C132.367 26.201 132.275 26.1926 132.142 26.1926ZM132.317 30.5426L132.092 30.5926H132.317V30.5426ZM131.467 31.2176H132.167C131.984 31.351 131.892 31.5176 131.892 31.7176H131.142V31.7926C131.142 31.9593 131.2 32.101 131.317 32.2176C131.4 32.3343 131.567 32.4176 131.817 32.4676H132.417C132.667 32.4176 132.884 32.3343 133.067 32.2176C133.217 32.0843 133.359 31.9176 133.492 31.7176H133.617C133.65 31.6343 133.684 31.5593 133.717 31.4926C133.75 31.4093 133.775 31.3176 133.792 31.2176H133.592C133.592 31.1843 133.592 31.1593 133.592 31.1426C133.609 31.126 133.617 31.1093 133.617 31.0926H133.642V30.9676H133.942C133.959 30.901 133.967 30.8426 133.967 30.7926C133.967 30.726 133.967 30.6593 133.967 30.5926H133.542L132.317 30.8676C132.25 30.8843 132.184 30.901 132.117 30.9176C132.067 30.9343 132.017 30.951 131.967 30.9676C131.917 30.9843 131.867 31.001 131.817 31.0176C131.767 31.0343 131.725 31.0593 131.692 31.0926H131.667C131.634 31.1093 131.6 31.126 131.567 31.1426C131.534 31.1593 131.5 31.1843 131.467 31.2176ZM131.592 32.4676H130.967C131.034 32.4843 131.134 32.4926 131.267 32.4926C131.317 32.4926 131.367 32.4926 131.417 32.4926C131.484 32.4926 131.542 32.4843 131.592 32.4676ZM153.069 24.8426H154.019V25.3426H153.969V25.8426H153.094V26.2176H153.319V26.7176H153.119V27.2176H152.669V27.3426H151.094V27.5176C151.094 27.551 151.085 27.5843 151.069 27.6176C151.069 27.651 151.06 27.6843 151.044 27.7176H151.619C151.535 28.0343 151.319 28.1926 150.969 28.1926H147.744C147.677 28.1926 147.61 28.1926 147.544 28.1926C147.494 28.1926 147.444 28.201 147.394 28.2176H148.394C148.31 28.2343 148.235 28.251 148.169 28.2676C148.102 28.2843 148.027 28.3093 147.944 28.3426H148.769C148.719 28.3593 148.644 28.401 148.544 28.4676H149.019L148.869 28.5926H148.994C148.894 28.6926 148.819 28.8176 148.769 28.9676H148.019C147.985 29.0343 147.969 29.076 147.969 29.0926H147.719C147.719 29.1093 147.71 29.126 147.694 29.1426C147.694 29.1593 147.694 29.1843 147.694 29.2176H147.994C147.977 29.251 147.969 29.2926 147.969 29.3426C147.969 29.376 147.96 29.4176 147.944 29.4676H148.094V29.8426H147.744V30.0926H148.094V30.4676H148.469V30.9676H147.919V31.0926H147.519V31.2176H149.019V31.5926H148.269V31.8426H148.519V32.0926H147.944V32.5926H147.619V32.7176H147.294V33.0926H148.144V33.4676H147.694V33.8426H148.144V33.9676H148.094V34.2176H147.544V34.4676H147.944V34.9676H148.044V35.3426H147.944C147.91 35.576 147.802 35.7426 147.619 35.8426H147.394C147.31 35.9093 147.194 35.9426 147.044 35.9426H142.294C142.144 35.9426 142.027 35.9093 141.944 35.8426H142.169C141.985 35.7426 141.877 35.576 141.844 35.3426H141.944V34.9676H141.844V34.4676H141.444V34.2176H141.994V33.9676H142.044V33.8426H141.594V33.4676H142.044V33.0926H141.194V32.7176H141.519V32.5926H141.844V32.0926H142.419V31.8426H142.169V31.5926H142.919V31.2176H141.419V31.0926H141.819V30.9676H142.369V30.4676H141.994V30.0926H141.644V29.8426H141.994V29.4676H141.844V29.2176H141.544V29.0926H141.794V28.9676H142.544V28.5926H142.419V28.4676H141.969V28.3426H141.144V28.2176H140.144V27.7176H139.594V27.3426H141.169V27.2176H141.619V26.7176H141.819V26.2176H141.594V25.8426H142.469V25.3426H142.519V24.8426H141.569V24.4676H142.369V23.9676H141.594V23.8426H141.844V23.6176C141.844 23.5343 141.86 23.4426 141.894 23.3426H141.869C141.985 23.076 142.194 22.9426 142.494 22.9426H146.869C147.152 22.9426 147.352 23.076 147.469 23.3426H147.519C147.552 23.4426 147.569 23.5343 147.569 23.6176V23.8426H147.319V23.9676H148.094V24.0426L148.194 23.9676H148.244C148.277 23.9343 148.31 23.9093 148.344 23.8926C148.377 23.876 148.402 23.8593 148.419 23.8426H148.469C148.802 23.626 149.127 23.4593 149.444 23.3426H149.494C149.827 23.2093 150.16 23.1093 150.494 23.0426C150.827 22.976 151.177 22.9426 151.544 22.9426H152.744C153.044 22.9426 153.252 23.076 153.369 23.3426H153.319C153.352 23.4426 153.369 23.5343 153.369 23.6176V23.8426H153.344V23.9676H153.294V24.4676H153.069V24.8426ZM166.658 33.0926H166.058V33.3426H166.958V33.5926H167.783V33.9676H167.208V34.3426H168.883V34.7176H166.158V35.2176H166.358V35.2676C166.358 35.301 166.35 35.326 166.333 35.3426C166.3 35.5093 166.242 35.6343 166.158 35.7176H165.958C165.892 35.7843 165.842 35.826 165.808 35.8426H166.658C166.575 35.9093 166.458 35.9426 166.308 35.9426H163.483C163.2 35.9426 162.917 35.9343 162.633 35.9176C162.367 35.901 162.108 35.876 161.858 35.8426H161.008C160.892 35.826 160.775 35.8093 160.658 35.7926C160.542 35.7593 160.417 35.7343 160.283 35.7176H160.483C160.267 35.6676 160.058 35.6093 159.858 35.5426C159.675 35.476 159.492 35.4093 159.308 35.3426H159.333C159.283 35.3093 159.233 35.2843 159.183 35.2676C159.133 35.251 159.092 35.2343 159.058 35.2176H158.858C158.725 35.1343 158.592 35.0593 158.458 34.9926C158.325 34.9093 158.192 34.8176 158.058 34.7176H160.808C160.742 34.651 160.667 34.5926 160.583 34.5426C160.517 34.476 160.45 34.4093 160.383 34.3426H158.708L158.383 33.9676H158.983C158.933 33.901 158.883 33.8426 158.833 33.7926C158.8 33.726 158.767 33.6593 158.733 33.5926H157.908L157.758 33.3426H156.858C156.842 33.3093 156.825 33.2676 156.808 33.2176C156.792 33.1676 156.767 33.126 156.733 33.0926H157.358L157.208 32.7176H157.708L157.633 32.4676C157.6 32.3676 157.583 32.2843 157.583 32.2176H159.558C159.542 32.151 159.525 32.0926 159.508 32.0426C159.508 31.976 159.508 31.9093 159.508 31.8426H156.658C156.658 31.8093 156.65 31.7843 156.633 31.7676C156.633 31.751 156.633 31.7343 156.633 31.7176H156.558C156.558 31.651 156.55 31.5926 156.533 31.5426C156.533 31.476 156.533 31.4093 156.533 31.3426H156.458C156.458 31.276 156.45 31.2176 156.433 31.1676C156.433 31.101 156.433 31.0343 156.433 30.9676H156.783V30.8426H156.558V30.5926H156.358V30.0926H156.658V29.5926H156.358V29.2176H156.583V28.9676H156.608V28.5926H156.733V27.7176H156.783V27.3426H156.908V27.3176H154.933C154.683 27.3176 154.483 27.201 154.333 26.9676H154.708C154.658 26.8676 154.633 26.7593 154.633 26.6426V26.4676H153.833V26.0926H154.008V25.5926H153.883V25.3426H153.933V25.0926H154.308V24.9676H153.683V24.5926H154.433V24.2176H154.283V23.9676H154.108V23.5926H153.958V23.4676H153.883C153.933 23.2176 154.092 23.051 154.358 22.9676H154.508C154.558 22.951 154.625 22.9426 154.708 22.9426H156.683V22.8426H156.783V22.4676H156.583V22.2176H156.558V21.8426H156.458V21.7176H155.858V21.4676H155.283V21.3426H155.483V21.2176H156.058V20.7176H156.283V20.4676H155.483V20.2176H156.708V19.8426H156.583V19.7176H156.308V19.4676H156.558V19.3426H156.308V18.9676H156.533V18.8676C156.533 18.7843 156.55 18.6926 156.583 18.5926H156.908C157.025 18.326 157.233 18.1926 157.533 18.1926H161.908C162.175 18.1926 162.383 18.326 162.533 18.5926H162.208C162.242 18.6926 162.258 18.7843 162.258 18.8676V18.9676H162.033V19.3426H162.283V19.4676H162.033V19.7176H162.308V19.8426H162.433V20.2176H161.208V20.4676H162.008V20.7176H161.783V21.2176H161.208V21.3426H161.008V21.4676H161.583V21.7176H162.183V21.8426H162.283V22.2176H162.308V22.4676H162.508V22.8426H162.408V22.9426H165.558C165.642 22.9426 165.7 22.951 165.733 22.9676H165.583C165.817 23.051 165.975 23.2176 166.058 23.4676H166.133C166.133 23.4843 166.133 23.501 166.133 23.5176C166.15 23.5343 166.158 23.5593 166.158 23.5926H166.308V23.9676H166.483V24.2176H166.633V24.5926H165.883V24.9676H166.508V25.0926H166.133V25.3426H166.083V25.5926H166.208V26.0926H166.033V26.4676H166.833V26.6426C166.833 26.7093 166.825 26.7676 166.808 26.8176C166.792 26.8676 166.767 26.9176 166.733 26.9676H166.383C166.233 27.201 166.033 27.3176 165.783 27.3176H162.633V27.3426H162.508V27.7176H162.458V28.5926H162.333V28.9676H162.308V29.2176H162.083V29.5926H162.383V30.0926H162.083C162.083 30.176 162.083 30.2593 162.083 30.3426C162.1 30.426 162.117 30.5093 162.133 30.5926H162.358C162.392 30.6926 162.425 30.776 162.458 30.8426H162.658L162.733 30.9676H162.383C162.567 31.201 162.85 31.3176 163.233 31.3176H165.508C165.592 31.3176 165.65 31.326 165.683 31.3426H165.758C165.958 31.3926 166.1 31.5176 166.183 31.7176H166.258C166.258 31.7343 166.258 31.751 166.258 31.7676C166.275 31.7843 166.283 31.8093 166.283 31.8426H169.133C169.133 31.8593 169.133 31.8843 169.133 31.9176C169.15 31.9343 169.158 31.9593 169.158 31.9926V32.2176H167.158V32.7176H166.658V33.0926Z" fill="#262626"/>
</svg>
